<svg width="1440" height="300" viewBox="0 0 1440 300" fill="none" xmlns="http://www.w3.org/2000/svg">
<path d="M465 297.326C231.756 309.562 29.9853 147.449 -1.06094e-06 24.2714L0 -6.29444e-05L1440 0L1440 297.326C1267.4 328.393 1095.82 77.7221 859.502 117.717C683.438 147.514 644.085 287.931 465 297.326Z" fill="#3D22BC"/>
<path d="M638.438 141.988C949.5 -31.163 1410.47 211.653 1424.53 218.034C1438.59 224.416 1438.59 218.034 1438.59 218.034L1438.59 0L0.702759 -6.28522e-05C2.95276 46.3721 57.8903 113.98 87.8904 141.988C255.515 268.767 524.766 194.813 638.438 141.988Z" fill="#341F97"/>
</svg>
